<svg width="64" height="64" viewBox="0 0 64 64" fill="none" xmlns="http://www.w3.org/2000/svg">
  <rect width="64" height="64" rx="14" fill="#2F7D4D"/>
  <path d="M18 19C18 15.6863 20.6863 13 24 13H40C43.3137 13 46 15.6863 46 19V20H18V19Z" fill="#F6F8F2"/>
  <path d="M17 22H47L44.7 49.6C44.4407 52.7113 41.8381 55.1034 38.716 55.1034H25.284C22.1619 55.1034 19.5593 52.7113 19.3 49.6L17 22Z" fill="#F6F8F2"/>
  <path d="M23 27H41L39.6 46.2C39.4108 48.7948 37.2503 50.8 34.6486 50.8H29.3514C26.7497 50.8 24.5892 48.7948 24.4 46.2L23 27Z" fill="#DDEB8E"/>
  <path d="M29 31.5C29 29.567 30.567 28 32.5 28H41L40.3 37.6C38.1962 39.0917 35.628 39.9667 32.858 39.9667C29.7417 39.9667 26.8839 38.8597 24.6553 37.0187L24.27 31.7333C25.646 32.9318 27.4451 33.6552 29.4118 33.6552C29.1457 33.0099 29 32.2828 29 31.5Z" fill="#F6C453"/>
  <path d="M26 17H38" stroke="#2F7D4D" stroke-width="3" stroke-linecap="round"/>
  <path d="M27 46C30.2 47.8 33.8 47.8 37 46" stroke="#2F7D4D" stroke-width="3" stroke-linecap="round"/>
</svg>
