<svg xmlns="http://www.w3.org/2000/svg" viewBox="0 0 640 420">
  <defs>
    <linearGradient id="bg" x1="0" x2="1" y1="0" y2="1">
      <stop stop-color="#eef8e3"/>
      <stop offset="1" stop-color="#fff4d6"/>
    </linearGradient>
    <linearGradient id="drink" x1="0" x2="0" y1="0" y2="1">
      <stop stop-color="#b9d96b"/>
      <stop offset="1" stop-color="#5f9f53"/>
    </linearGradient>
  </defs>
  <rect width="640" height="420" rx="34" fill="url(#bg)"/>
  <ellipse cx="319" cy="356" rx="190" ry="30" fill="#24402f" opacity=".12"/>
  <path d="M232 96h176l-24 239c-3 30-28 52-58 52h-12c-30 0-55-22-58-52L232 96z" fill="#f8fcff" stroke="#1f3329" stroke-width="8"/>
  <path d="M254 151h132l-18 178c-2 19-18 33-37 33h-22c-19 0-35-14-37-33l-18-178z" fill="url(#drink)"/>
  <path d="M230 111h180" stroke="#1f3329" stroke-width="14" stroke-linecap="round"/>
  <path d="M405 161c26-68 98-79 127-28 27 49-3 111-73 120-63-24-77-62-54-92z" fill="#2f7d4f" stroke="#1f3329" stroke-width="8"/>
  <path d="M432 172c17-45 65-53 84-18 18 33-2 73-48 79-42-16-52-41-36-61z" fill="#d8e98b"/>
  <circle cx="469" cy="198" r="25" fill="#7a4328"/>
  <path d="M291 221c19-13 42-13 61 0" stroke="#edf7cb" stroke-width="10" stroke-linecap="round"/>
</svg>
