<svg xmlns="http://www.w3.org/2000/svg" viewBox="0 0 640 420">
  <defs>
    <linearGradient id="bg" x1="0" x2="1" y1="0" y2="1">
      <stop stop-color="#fff5d9"/>
      <stop offset="1" stop-color="#f2f9e7"/>
    </linearGradient>
  </defs>
  <rect width="640" height="420" rx="34" fill="url(#bg)"/>
  <ellipse cx="320" cy="334" rx="220" ry="44" fill="#24402f" opacity=".12"/>
  <path d="M160 269c92 70 256 61 346-27 16-16-2-40-23-31-93 43-205 50-302 16-24-8-42 26-21 42z" fill="#f7b733" stroke="#1f3329" stroke-width="8"/>
  <path d="M190 234c80 35 184 30 268-5" stroke="#ffe88a" stroke-width="18" stroke-linecap="round"/>
  <rect x="245" y="143" width="28" height="96" rx="9" transform="rotate(22 245 143)" fill="#fff3c1" stroke="#1f3329" stroke-width="6"/>
  <rect x="334" y="132" width="28" height="108" rx="9" transform="rotate(16 334 132)" fill="#fff3c1" stroke="#1f3329" stroke-width="6"/>
  <rect x="416" y="151" width="28" height="82" rx="9" transform="rotate(25 416 151)" fill="#fff3c1" stroke="#1f3329" stroke-width="6"/>
  <path d="M230 196c44 39 145 45 235 5" stroke="#7a4328" stroke-width="13" stroke-linecap="round" stroke-dasharray="22 24"/>
  <path d="M211 288c76 29 194 30 285-18" stroke="#fff2a9" stroke-width="10" stroke-linecap="round"/>
</svg>
